<?xml version="1.0" encoding="utf-8"?>
<svg viewBox="0 0 215.164 176.504" xmlns="http://www.w3.org/2000/svg">
  <path fill="#a8db88" d="M 107.182 3.502 L 81.682 47.602 L 107.182 91.702 L 132.882 47.602 L 107.182 3.502 Z"/>
  <circle fill="#41b883" cx="174.282" cy="91.702" r="36.5"/>
  <circle fill="#41b883" cx="40.882" cy="91.702" r="36.5"/>
  <path fill="#a8db88" d="M 118.982 168.902 L 96.182 168.902 C 84.982 168.902 36.182 146.902 36.182 146.902 L 37.782 128.202 C 37.782 128.202 47.082 123.602 48.882 91.702 C 50.582 59.802 43.982 55.402 43.982 55.402 L 46.282 27.902 L 93.182 27.902 L 107.182 3.502 L 121.682 27.902 L 168.982 27.902 L 171.282 55.402 C 171.282 55.402 163.682 59.702 166.382 91.702 C 169.082 123.702 177.482 128.202 177.482 128.202 L 179.082 146.902 C 178.982 146.902 130.582 168.902 118.982 168.902 Z"/>
  <path fill="#35495e" d="M 107.582 133.702 L 96.282 153.402 L 107.582 173.002 L 118.982 153.402 L 107.582 133.702 Z"/>
  <path fill="#41b883" d="M 144.382 27.902 L 168.882 27.902 L 107.582 133.702 L 46.182 27.902 L 93.082 27.902 L 107.582 52.402 L 121.682 27.902 L 144.382 27.902 Z"/>
  <path fill="#41b883" d="M 46.182 27.902 L 107.582 133.702 L 168.982 27.802 L 144.482 27.802 L 107.582 91.402 L 70.482 27.902 L 46.182 27.902 Z"/>
  <path fill="#35495e" d="M 70.482 27.902 L 107.582 91.702 L 144.382 27.902 L 121.682 27.902 L 107.582 52.402 L 93.182 27.902 L 70.482 27.902 Z"/>
  <path d="M 178.982 146.902 C 178.982 146.902 164.582 141.402 144.482 137.502 C 133.482 135.402 120.782 133.702 107.682 133.702 C 94.482 133.702 81.582 135.402 70.582 137.502 C 50.582 141.402 36.382 146.902 36.382 146.902" fill="none" stroke="#35495e" stroke-width="2" stroke-linecap="round" stroke-linejoin="round" stroke-miterlimit="10"/>
  <circle fill="#35495e" cx="25.182" cy="110.502" r="7"/>
  <circle fill="#35495e" cx="189.982" cy="72.202" r="7"/>
</svg>